<?xml version="1.0" encoding="UTF-8" standalone="no"?>
<!-- Created with Inkscape (http://www.inkscape.org/) -->

<svg
   width="512"
   height="512"
   viewBox="0 0 135.46666 135.46667"
   version="1.1"
   id="svg5"
   inkscape:version="1.2.1 (9c6d41e410, 2022-07-14)"
   sodipodi:docname="EditIcon.svg"
   inkscape:export-filename="..\Documents\NetBeansProjects\Funds\web\images\EditIcon.png"
   inkscape:export-xdpi="96"
   inkscape:export-ydpi="96"
   xmlns:inkscape="http://www.inkscape.org/namespaces/inkscape"
   xmlns:sodipodi="http://sodipodi.sourceforge.net/DTD/sodipodi-0.dtd"
   xmlns="http://www.w3.org/2000/svg"
   xmlns:svg="http://www.w3.org/2000/svg">
  <sodipodi:namedview
     id="namedview7"
     pagecolor="#505050"
     bordercolor="#eeeeee"
     borderopacity="1"
     inkscape:showpageshadow="0"
     inkscape:pageopacity="0"
     inkscape:pagecheckerboard="true"
     inkscape:deskcolor="#505050"
     inkscape:document-units="px"
     showgrid="false"
     inkscape:zoom="0.70481189"
     inkscape:cx="262.48138"
     inkscape:cy="200.05338"
     inkscape:window-width="1366"
     inkscape:window-height="697"
     inkscape:window-x="-8"
     inkscape:window-y="-8"
     inkscape:window-maximized="1"
     inkscape:current-layer="layer1" />
  <defs
     id="defs2">
    <clipPath
       clipPathUnits="userSpaceOnUse"
       id="clipPath908">
      <path
         id="path910"
         style="fill:#ff0000;fill-opacity:1;fill-rule:nonzero;stroke:none;stroke-width:0.264583"
         d="M 3.7506753,3.747058 V 5.7965453 H 5.4658161 V 3.9677165 c 2.403e-4,-7.75e-5 -8.995e-4,-0.00111 -5.291e-4,-0.00103 h 5.291e-4 c -0.00846,-0.019571 -0.011459,-0.034849 -0.011885,-0.063045 -0.00217,4.233e-4 -0.004,0.00172 -0.0062,0.00206 9.79e-4,-0.00114 8.731e-4,-0.00257 0.00775,-0.010853 6.879e-4,-0.00156 0.0014,-0.00308 0.00206,-0.00465 -0.00596,0.00788 -0.012139,0.01579 -0.018603,0.023254 -0.00127,0.00148 -0.00336,0.00183 -0.00517,0.00259 -0.00987,0.00415 -0.019315,0.00896 -0.029456,0.012401 -0.00138,0.00169 -0.00279,0.00355 -0.00465,0.00465 -0.03409,0.020233 -0.038485,0.023561 -0.069763,0.025321 -0.012139,9.79e-4 -0.029361,0.00119 -0.043925,-0.00156 -0.069151,0.020862 -0.1071052,-0.071332 -0.076481,-0.122473 5.821e-4,-0.014605 0.0066,-0.030484 0.01447,-0.046509 v -5.292e-4 c -0.00371,-0.00579 -0.00404,-0.011771 0.00103,-0.018087 0.00827,-0.010287 0.014105,-0.014751 0.021188,-0.022222 h -0.037724 c -4.498e-4,1.4e-5 -0.00918,0.00795 -0.00723,0.00569 -0.00996,0.00259 -0.019246,0.00804 -0.029455,0.0093 -0.0035,4.233e-4 0.00658,-0.00344 0.0093,-0.00568 0.00151,-0.00124 -0.00405,0.00148 -0.00568,0.00259 -0.037356,0.025053 -0.00975,0.010374 -0.045475,0.026872 2.911e-4,-8.731e-4 0.00193,-0.00238 0.00103,-0.00259 -0.00143,-3.175e-4 -0.00413,0.00348 -0.00362,0.00206 0.00306,-0.00812 0.015425,-0.031176 0.011885,-0.023254 -0.018952,0.042453 -0.014166,0.03201 -0.05426,0.062012 -0.0083,0.00238 -0.035437,0.0099 -0.038757,0.010335 -0.00225,2.91e-4 0.00423,-0.00241 0.00568,-0.00414 0.00492,-0.00581 0.019325,-0.022916 0.013436,-0.018087 -0.054588,0.044705 -0.012668,0.024016 -0.041858,0.037207 -0.010329,0.00342 -0.020206,0.00901 -0.031006,0.010335 -0.00492,6.085e-4 0.0083,-0.00497 0.012401,-0.00775 0.010001,-0.00678 -0.020714,0.011147 -0.031523,0.016536 -0.00153,7.672e-4 0.00533,-0.00303 0.00362,-0.0031 -0.00251,-10e-5 -0.00444,0.00201 -0.00672,0.0031 -0.00947,0.00556 -0.018452,0.011917 -0.028422,0.016536 -0.00225,0.00103 -0.00387,3.969e-4 -0.00723,0.00206 -0.00204,0.00312 0.00334,8.202e-4 -0.018087,0.017052 -0.00962,0.00728 -0.020884,0.011366 -0.031523,0.017052 -0.019825,0.0052 -0.027122,0.0061 -0.032039,0.00362 -0.00316,0.00428 -0.00606,0.00865 -0.00982,0.012401 -0.024291,0.024217 -0.065441,0.037525 -0.098185,0.043925 -0.00518,0.00101 -0.010234,-7.144e-4 -0.015502,-0.00103 -0.00418,-5.027e-4 -0.00875,-9.525e-4 -0.01292,-0.00156 -0.00169,-2.535e-4 -0.00345,1.759e-4 -0.00465,-0.00103 -9.525e-4,-9.79e-4 0.00381,-0.00353 0.00259,-0.0031 -0.00399,0.00132 -0.00716,0.00555 -0.011369,0.00569 -0.0019,5e-5 0.00164,-0.00351 0.00259,-0.00517 -0.00914,0.00881 -0.017616,0.017383 -0.024805,0.027905 -0.00426,0.00623 -0.01129,0.025974 -0.01292,0.018603 -0.00156,-0.0071 0.00282,-0.00881 0.00362,-0.013954 -0.00656,-5.821e-4 -0.013406,-4.763e-4 -0.020153,-5.292e-4 -0.034468,0.094109 -0.1192832,0.069621 -0.1080037,-0.040824 3.65e-5,-3.44e-4 3.969e-4,-6.615e-4 5.292e-4,-0.00103 -0.0042,-0.00985 -0.011028,-0.015393 -0.012401,-0.029455 -6.35e-4,-0.00646 -0.00108,-0.013462 -0.00259,-0.020153 -7.937e-4,-0.00585 -0.0055,-0.011382 -0.00517,-0.016021 0.00293,-2.63e-4 3.44e-4,1.984e-4 0.00259,0 -4.498e-4,-0.00206 -1.018e-4,-0.00412 -5.291e-4,-0.0062 -4.763e-4,-1.16e-5 -0.00169,3.26e-5 -0.00206,0 -0.00388,-3.439e-4 -7.937e-4,-0.00655 5.292e-4,-0.011369 -9.261e-4,-0.00749 -0.00427,-0.014875 -0.0031,-0.02222 3.704e-4,-0.00225 0.00101,-0.00449 0.00156,-0.00672 -0.00111,-0.0052 -0.00326,-0.010372 -0.00206,-0.015502 0.00293,-0.012123 0.00769,-0.023625 0.012401,-0.03514 7.673e-4,-0.00471 -7.144e-4,-0.00799 0,-0.011885 0.0044,-0.024233 0.010356,-0.033546 0.019637,-0.043408 z m 1.1332641,0.017571 c -1.553e-4,1.339e-4 -8.995e-4,3.969e-4 -0.00103,5.292e-4 0.00737,-5.292e-4 0.014256,-0.00175 0.023254,-5.292e-4 0.00728,0.00101 -0.011319,2.239e-4 -0.02222,0 z m 0.3849894,0.00723 -0.00723,0.00465 c 0.00301,-0.00172 0.00576,-0.00198 0.00775,-0.0031 -9.89e-5,-5.027e-4 -4.233e-4,-0.00106 -5.292e-4,-0.00156 z m 0.1260907,0.011885 c -8.996e-4,0.00399 6.35e-4,9.79e-4 -0.00103,0.010853 -1.929e-4,0.00114 0.00127,-0.00161 0.00206,-0.0031 -2.225e-4,-0.00122 9.525e-4,-0.00241 5.292e-4,-0.00362 -3.969e-4,-0.00111 4.498e-4,0.00201 0,0.0031 l -5.292e-4,5.291e-4 c 4.234e-4,0.00222 -3.439e-4,0.00447 -5.291e-4,0.00672 0.00108,-8.467e-4 0.00695,-0.00151 0.00827,-0.00206 -0.00281,-0.00422 -0.00589,-0.00824 -0.00878,-0.012401 z M 5.225004,3.788915 c -0.00151,0.00732 -0.00156,0.013195 0.00156,0.020672 0.00377,-0.0032 0.00746,-0.00627 0.011369,-0.0093 -0.00496,-0.00377 -0.010102,-0.00755 -0.01292,-0.011369 z m 0.01292,0.011369 c -0.00148,0.00111 -0.00332,0.00228 -0.00414,0.00414 -0.00161,0.00376 -0.00185,0.00777 -0.0031,0.011885 0.00138,0.00214 0.00235,0.00428 0.00414,0.0062 4.234e-4,-0.00267 -1.632e-4,-0.0088 5.292e-4,-0.00982 7.673e-4,-0.00119 0.00172,0.00196 0.00259,0.0031 0.0056,0.00552 0.010898,0.01107 0.016536,0.016536 0.00808,0.00257 0.01511,0.00641 0.025839,0.00414 -1.514e-4,-5.027e-4 1.497e-4,-0.00106 0,-0.00156 C 5.2681762,3.822488 5.2525622,3.810939 5.2384602,3.800282 Z M 4.8400152,3.906221 c -0.00381,0.00243 -0.00161,-4.763e-4 -0.018087,0.0093 -0.0014,8.467e-4 -0.00222,2.646e-4 -0.00362,0.00103 0.0013,0.00309 0.00271,0.00715 0.00362,0.00982 0.00217,0.0064 0.012888,-9.66e-5 0.02377,-0.00827 -6.614e-4,-0.00161 -0.00487,-0.0097 -0.00568,-0.011885 z m 0.5741252,0.011885 c -0.0033,0.00196 -0.00593,0.00509 -0.00827,0.00827 0.00167,-0.00101 0.00204,-0.00138 0.0031,-0.00206 0.00161,-0.00209 0.00744,-0.00756 0.00517,-0.0062 z M 4.6958379,3.975984 c 5.292e-4,3.41e-5 -0.016145,1.899e-4 -0.016536,5.291e-4 3.05e-5,0.00249 -8.731e-4,0.00474 -0.00103,0.00723 0.00711,-0.00584 0.015494,-0.00788 0.017571,-0.00775 z" />
    </clipPath>
    <clipPath
       clipPathUnits="userSpaceOnUse"
       id="clipPath951">
      <path
         id="path953"
         style="fill:#ff0000;fill-opacity:1;fill-rule:nonzero;stroke:none;stroke-width:0.264583"
         d="M 4.258138,1.5420247 V 4.9211465 H 7.4414061 V 1.5420247 Z m 1.701705,0.4966105 c 0.041126,0.010575 0.06576,0.052307 0.01292,0.091467 -0.00672,0.00498 -0.011253,0.018692 -0.016021,0.031523 0.050398,0.00131 0.073998,0.061198 0.010853,0.1167888 -0.00228,0.002 -0.00447,0.00371 -0.00672,0.00568 C 5.971297,2.279504 5.982256,2.276254 5.992914,2.272208 6.016877,2.2613 6.028819,2.25205 6.04304,2.255672 c 0.011007,0.0028 0.028862,0.023374 0.049093,0.046509 -3.704e-4,-0.00105 -1.088e-4,-9.604e-4 -5.292e-4,-0.00207 0.00243,0.00278 0.00479,0.0055 0.00723,0.00827 0.00352,0.00418 0.00377,0.00238 0.00775,0.00723 2.911e-4,3.519e-4 -2.336e-4,0.00117 0,0.00155 0.00169,0.00195 0.00349,0.00372 0.00517,0.00568 0.0019,0.00223 0.00254,0.00592 0.00517,0.00723 0.042335,0.021125 -0.026191,-0.023139 0.047542,0.029456 0.00827,0.01141 0.015978,0.027646 0.025839,0.037724 0.023662,0.024189 0.053939,0.042003 0.07183,0.07183 0.00608,0.014742 0.012266,0.029597 0.018087,0.044442 0.00101,0.00255 -0.00648,-0.00912 -0.00517,-0.00672 0.00844,0.015482 0.01378,0.021364 0.024805,0.037207 0.016431,0.032866 0.030502,0.067672 0.040824,0.1033527 0.00368,0.0053 0.00718,0.010604 0.011369,0.015502 6.879e-4,7.937e-4 0.00235,-2.48e-4 0.0031,5.291e-4 0.00558,0.0055 0.0099,0.01161 0.014986,0.017571 0.016809,0.0041 0.016994,0.015864 0.015502,0.027905 0.010443,0.00727 0.018608,0.016362 0.029456,0.037724 0.00101,0.00198 7.143e-4,0.00316 0.00259,0.0062 h 5.292e-4 v 5.292e-4 c 0.00127,0.0018 0.00183,0.00132 0.0031,0.0031 0.00265,0.00259 0.00307,0.00306 0.00465,0.00465 0.016039,0.015015 0.031302,0.030196 0.044442,0.048059 0.020077,0.027294 0.00733,0.021553 0.020672,0.026872 0.00639,0.011213 0.012729,0.022376 0.019121,0.03359 0.00167,0.00419 0.00323,0.00833 0.00517,0.012401 8.202e-4,7.937e-4 0.00127,0.0018 0.00206,0.00259 0.00302,0.00212 0.00869,0.00159 0.011369,0.00414 0.017558,0.00249 0.032097,0.0052 0.075448,0.00827 3.704e-4,2.7e-5 1.775e-4,9.525e-4 5.291e-4,0.00103 0.00761,-0.00424 0.014295,-0.010086 0.02222,-0.013435 0.013049,-0.00552 0.030001,0.00287 0.042375,-0.0062 0.040292,-0.00669 0.052732,-0.015319 0.093534,0.019637 0.00303,0.00259 0.0034,0.00903 0.00568,0.01292 0.041349,0.00359 0.055649,0.063668 0.00259,0.1266074 -6.35e-4,7.673e-4 -0.00146,0.0013 -0.00206,0.00206 0,0 0,5.292e-4 0,5.292e-4 0.014489,0.043976 -0.021466,0.057175 -0.042891,0.076481 -5.027e-4,4.498e-4 0.00183,9.525e-4 0.00156,0.00156 -0.00386,0.00831 -0.010911,0.012039 -0.0031,0.00672 0.00217,0.00688 0.00164,-0.01006 0.00103,-0.020153 -9.525e-4,0.0013 -0.00188,0.00101 -0.0031,0.00259 -6.88e-4,0.00188 -0.00143,0.00378 -0.00206,0.00568 -0.00188,0.014541 -0.00665,0.026907 -0.01292,0.039791 -0.0019,0.00627 -0.00387,0.012491 -0.0062,0.018603 -0.00124,0.00328 -0.00423,0.00592 -0.00723,0.00775 -0.00233,0.0014 -0.00481,0.00238 -0.00723,0.00362 -1.919e-4,0.00316 -0.00161,0.00643 -0.0031,0.0093 -0.00436,0.00846 -0.010059,0.016375 -0.01447,0.024805 -0.00172,0.00328 -0.00198,0.00682 -0.00414,0.00982 -0.00675,0.00938 -0.012422,0.020751 -0.02222,0.026872 -0.010107,0.00631 -0.021963,0.00876 -0.03359,0.011885 -0.00597,0.012472 -0.010787,0.02759 -0.013952,0.026355 -6.879e-4,-2.646e-4 0.00474,-0.010708 0.00775,-0.017571 -0.00108,9.79e-4 -0.00108,6.35e-4 -0.00206,0.00156 -0.00303,0.00627 0.00146,-0.00288 -0.021188,0.042375 -0.023731,0.016738 -0.040094,0.037763 -0.050643,0.065112 -0.039651,0.042392 0.027925,-0.027399 -0.00259,-0.027388 -0.00397,0.00362 -0.00838,0.00686 -0.01292,0.00982 -0.00217,0.00904 -0.00677,0.021847 -0.00827,0.029972 -0.00489,0.00649 -0.011427,0.011311 -0.016537,0.017571 -4.762e-4,5.556e-4 -0.00108,9.79e-4 -0.00156,0.00156 -0.0096,0.011589 -0.018238,0.023704 -0.031006,0.032556 -0.0054,0.00375 -0.010517,0.00837 -0.01602,0.011885 -0.00651,0.010234 -0.012361,0.02281 -0.021188,0.027905 -0.067853,0.039174 -0.078174,0.019283 -0.014986,0.00672 0.0041,-8.202e-4 -0.00614,0.00553 -0.0093,0.00827 -0.011086,0.00936 -0.034907,0.029773 -0.038757,0.031523 -0.00789,0.00359 -0.019463,0.00884 -0.028939,0.010851 -0.00185,8.731e-4 -0.00374,0.00196 -0.00568,0.00259 -0.00135,0.00214 -0.00185,0.00515 -0.00414,0.0062 -0.00307,0.00143 -0.00243,0.0013 -0.00517,0.00259 0.00111,-0.00183 0.0023,-0.00765 0.00362,-0.01292 -0.00212,0.00343 -0.00295,0.00781 -0.00362,0.00568 -2.616e-4,-8.467e-4 -3.439e-4,-0.00172 -5.291e-4,-0.00259 -9.261e-4,8.466e-4 -0.00327,0.00265 -0.00568,0.00465 6.615e-4,0.00262 0.00143,0.00539 0.00206,0.00672 -0.011454,0.00547 -0.014793,0.00623 -0.021704,0.0093 -0.00527,0.00351 -0.01047,0.00643 -0.011369,0.00827 -0.00116,0.00238 0.00496,-0.00282 0.00723,-0.00414 -0.00907,0.011195 -0.018042,0.024133 -0.031006,0.031522 -0.011697,0.00667 -0.026676,0.00754 -0.03669,0.016536 -0.00299,0.00269 -0.00416,0.00671 -0.00672,0.00982 -0.00713,0.00534 -0.014695,0.010528 -0.021704,0.016021 -0.00269,0.00209 0.00551,-0.00473 0.00878,-0.00569 0.00146,-3.969e-4 -0.00122,0.00238 -0.00206,0.00362 -0.00389,0.00569 -0.00804,0.011713 -0.012401,0.017052 -0.00703,0.0086 -0.013221,0.01006 -0.017052,0.013436 -6.879e-4,0.00254 -4.762e-4,0.00536 -0.00156,0.00775 -0.00579,0.012832 -0.027498,0.027972 -0.046509,0.038241 -0.00587,0.015576 -0.012502,0.037554 -0.013952,0.040824 -0.011539,0.025942 -0.019426,0.028588 -0.025321,0.019637 -0.00169,0.00143 -0.00295,0.00323 -0.00465,0.00465 -6.879e-4,5.291e-4 -8.202e-4,0.00217 -0.00156,0.00259 -5.291e-4,3.175e-4 -0.00101,-2.641e-4 -0.00156,0 -0.00108,5.292e-4 -0.00204,-3.44e-4 -0.0031,0 -0.018116,0.01782 -0.031571,0.03345 -0.052193,0.044442 2.394e-4,6.879e-4 1.542e-4,0.00193 5.292e-4,0.00259 8.202e-4,0.0022 -0.00365,0.0022 -0.0062,0.0031 -0.00339,0.00122 -0.00527,0.00332 -0.00827,0.00414 -0.013816,0.00376 -0.028203,0.00622 -0.042375,0.00827 -0.00769,0.00111 -0.00728,0.00127 -0.00878,-0.00206 0.014891,-0.013899 -0.053624,0.026832 -0.03514,0.011369 -0.037076,0.03441 -8.996e-4,0.00489 -0.00517,-0.00827 -0.00196,-0.00602 -0.00545,-0.015592 -0.00827,-0.024289 -3.704e-4,9.29e-5 -6.615e-4,4.233e-4 -0.00103,5.292e-4 -0.010433,0.00585 -0.020855,0.012158 -0.031523,0.017571 -0.00209,0.00106 -0.00479,1.524e-4 -0.00672,0.00156 -5.027e-4,3.439e-4 -0.00106,6.614e-4 -0.00156,0.00103 0.00201,0.019547 0.0053,0.039782 5.291e-4,0.057361 -0.00584,0.02109 -0.074863,-0.033903 -0.065112,0.0093 -0.017939,0.00377 -0.03567,0.00831 -0.053744,0.011369 -0.00169,2.911e-4 1.484e-4,-2.643e-4 -0.00156,0 -0.00308,0.00318 -0.00709,0.00427 -0.017571,0.022738 -0.045499,0.080196 -0.11824,0.08004 -0.1240235,0.025321 -0.00705,0.00813 -0.00928,0.013272 -0.033073,0.028939 -0.041953,0.010485 0.036514,-0.00777 -0.098185,-0.03514 0.0028,0.00649 0.00357,0.010655 0.00827,0.020153 0.00327,0.00661 -0.016052,-0.021616 -0.00878,-0.020153 h 5.291e-4 c -0.00846,-0.019571 -0.011459,-0.034848 -0.011885,-0.063045 -0.00217,4.233e-4 -0.004,0.00172 -0.0062,0.00206 9.79e-4,-0.00114 8.732e-4,-0.00257 0.00775,-0.010853 6.879e-4,-0.00156 0.0014,-0.00308 0.00206,-0.00465 -0.00596,0.00788 -0.012139,0.01579 -0.018603,0.023254 -0.00127,0.00148 -0.00336,0.00183 -0.00517,0.00259 -0.00987,0.00415 -0.019315,0.00896 -0.029456,0.012401 -0.00138,0.00169 -0.00279,0.00355 -0.00465,0.00465 -0.03409,0.020233 -0.038485,0.023561 -0.069763,0.025321 -0.012139,9.79e-4 -0.029361,0.00119 -0.043925,-0.00156 -0.069151,0.020862 -0.1071071,-0.071332 -0.076481,-0.122473 5.821e-4,-0.014605 0.0066,-0.030484 0.01447,-0.046509 v -5.292e-4 c -0.00371,-0.00579 -0.00404,-0.011771 0.00103,-0.018087 0.018206,-0.022656 0.033192,-0.037319 0.046509,-0.049093 -1.294e-4,-0.00108 -6.615e-4,-0.00265 -0.00103,-0.00414 -0.00204,0.00106 -0.00334,0.00525 -0.00568,0.00465 -0.00185,-4.762e-4 -0.0035,-0.00159 -0.00517,-0.00259 -0.00892,0.00547 -0.018431,0.00993 -0.028939,0.011885 -0.016854,0.014118 -0.03728,0.031882 -0.029456,0.022738 -0.00996,0.00259 -0.019246,0.00804 -0.029456,0.0093 -0.0035,4.233e-4 0.00658,-0.00344 0.0093,-0.00568 0.00151,-0.00124 -0.00405,0.00148 -0.00568,0.00259 -0.037356,0.025053 -0.00975,0.010374 -0.045475,0.026872 2.911e-4,-8.732e-4 0.00193,-0.00238 0.00103,-0.00259 -0.00143,-3.175e-4 -0.00413,0.00355 -0.00362,0.00206 0.00306,-0.00812 0.015425,-0.031176 0.011885,-0.023254 -0.018952,0.042453 -0.014166,0.03201 -0.05426,0.062012 -0.0083,0.00238 -0.035437,0.0099 -0.038757,0.010335 -0.00225,2.91e-4 0.00423,-0.00241 0.00568,-0.00414 0.00492,-0.00581 0.019325,-0.022916 0.013436,-0.018087 -0.054588,0.044705 -0.012668,0.024016 -0.041858,0.037207 -0.010329,0.00342 -0.020206,0.00901 -0.031006,0.010335 -0.00492,6.085e-4 0.0083,-0.00497 0.012401,-0.00775 0.010001,-0.00678 -0.020714,0.011147 -0.031523,0.016536 -0.00153,7.673e-4 0.00533,-0.00303 0.00362,-0.0031 -0.00251,-1.001e-4 -0.00444,0.00201 -0.00672,0.0031 -0.00947,0.00556 -0.018452,0.011917 -0.028422,0.016536 -0.00225,0.00103 -0.00387,3.969e-4 -0.00723,0.00206 -0.00204,0.00312 0.00334,8.202e-4 -0.018087,0.017052 -0.00962,0.00728 -0.020884,0.011369 -0.031522,0.017052 -0.019825,0.0052 -0.027121,0.0061 -0.032039,0.00362 -0.00316,0.00428 -0.00606,0.00865 -0.00982,0.012401 -0.024291,0.024217 -0.065441,0.037525 -0.098185,0.043925 -0.00518,0.00101 -0.010234,-7.144e-4 -0.015502,-0.00103 -0.00418,-5.027e-4 -0.00875,-9.525e-4 -0.01292,-0.00156 -0.00169,-2.532e-4 -0.00345,1.519e-4 -0.00465,-0.00103 -9.525e-4,-9.789e-4 0.00374,-0.00353 0.00259,-0.0031 -0.00399,0.00132 -0.00716,0.00555 -0.011369,0.00569 -0.0019,5e-5 0.00164,-0.00351 0.00259,-0.00517 -0.00914,0.00881 -0.017616,0.017383 -0.024805,0.027905 -0.00426,0.00623 -0.01129,0.025974 -0.01292,0.018603 -0.00156,-0.0071 0.00282,-0.00881 0.00362,-0.013954 -0.00656,-5.821e-4 -0.013406,-4.763e-4 -0.020153,-5.292e-4 -0.034468,0.094109 -0.1192832,0.069621 -0.1080037,-0.040824 3.65e-5,-3.44e-4 3.969e-4,-6.615e-4 5.292e-4,-0.00103 -0.0042,-0.00985 -0.01103,-0.015393 -0.012401,-0.029456 -6.35e-4,-0.00646 -0.00108,-0.013462 -0.00259,-0.020153 -7.937e-4,-0.00585 -0.0055,-0.011382 -0.00517,-0.01602 0.00293,-2.63e-4 3.44e-4,1.984e-4 0.00259,0 -4.498e-4,-0.00206 -8.94e-5,-0.00412 -5.291e-4,-0.0062 -4.763e-4,-1.16e-5 -0.00169,3.26e-5 -0.00206,0 -0.00388,-3.439e-4 -7.937e-4,-0.00655 5.292e-4,-0.011369 -9.261e-4,-0.00749 -0.00427,-0.014875 -0.0031,-0.02222 3.704e-4,-0.00225 0.00101,-0.00449 0.00156,-0.00672 -0.00111,-0.0052 -0.00322,-0.010374 -0.00206,-0.015502 0.00293,-0.012123 0.00769,-0.023625 0.012401,-0.03514 7.673e-4,-0.00471 -7.144e-4,-0.00799 0,-0.011885 0.0045,-0.024821 0.010475,-0.03432 0.020153,-0.044442 0.00153,-0.0022 0.00451,-0.0036 0.0062,-0.00568 1.987e-4,-7.144e-4 3.175e-4,-3.44e-4 5.292e-4,-0.00103 0.00383,-0.013303 0.0056,-0.016886 0.00775,-0.021188 0.00161,0.0053 0.00325,0.00963 0.00362,0.010335 l 5.292e-4,-5.291e-4 c -2.44e-5,-0.00556 -0.00551,-0.042987 0.013435,-0.069247 0.00829,-0.011488 0.023998,-0.014089 0.038757,-0.017052 0.00316,-0.00945 0.00543,-0.019106 0.012404,-0.027389 0.016113,-0.019143 0.043186,-0.023834 0.034106,-0.022738 l 5.292e-4,-5.292e-4 V 3.590521 c 0.00433,-0.00673 0.00832,-0.014473 0.013951,-0.020153 0.00405,-0.00409 0.00897,-0.00721 0.013436,-0.010853 -0.00966,0.00485 -0.020032,0.011239 -0.027388,0.011369 -0.011126,1.968e-4 0.012052,-0.017066 0.032556,-0.032556 0.00294,-0.00222 0.00287,-0.00304 0.00568,-0.00517 -6.35e-4,-3.175e-4 -0.00143,-0.00127 -0.00206,-0.00156 0.00246,-0.0049 0.00482,-0.00983 0.00775,-0.01447 0.00664,-0.010507 0.017796,-0.017844 0.024289,-0.028422 -0.00111,0.00473 -0.00535,0.01877 -0.0031,0.01447 0.004,-0.00764 0.00548,-0.016317 0.00878,-0.024289 0.00135,-0.00328 0.00116,-0.00177 0.00206,-0.0031 -1.41e-5,-0.00196 -3.95e-5,-0.00108 0,-0.00362 0.00466,-0.067125 -0.00722,0.00132 0.045992,-0.081132 0.00151,-0.00233 -0.00463,0.00228 -0.00723,0.00414 -5.557e-4,6.614e-4 -9.79e-4,0.00143 -0.00156,0.00206 -3.439e-4,3.969e-4 -2.646e-4,-7.937e-4 0,-0.00156 -0.00459,0.00335 -0.00678,0.00542 -0.010853,0.0062 -0.00476,9.261e-4 0.00688,-0.00747 0.011369,-0.0093 0.00101,-3.969e-4 4.16e-5,0.00156 -5.291e-4,0.0031 5.821e-4,-4.234e-4 0.00106,-1.477e-4 0.00156,-5.292e-4 0.00684,-0.00805 0.012721,-0.016907 0.019121,-0.025321 0.032257,-0.023556 0.047244,-0.039988 0.089917,-0.040824 0.00374,-7.33e-5 0.00698,9.789e-4 0.011369,0 0.00607,-0.00796 0.015393,-0.013369 0.02377,-0.019637 0.00275,-0.00243 0.012798,-0.014983 0.024289,-0.031522 -5.37e-5,-7.408e-4 9.789e-4,-8.731e-4 0.00103,-0.00156 1.696e-4,-0.00238 0.00201,-0.00383 0.0031,-0.00568 l 5.291e-4,-5.292e-4 c 0.00225,-0.0035 0.00343,-0.00768 0.0062,-0.010853 1.561e-4,-0.00122 6.879e-4,-0.00238 0.00103,-0.00362 2.646e-4,-3.704e-4 1.847e-4,-8.466e-4 5.292e-4,-0.00156 0.00233,-0.00705 0.0031,-0.013745 0.00465,-0.020672 0.00649,-0.024532 0.020566,-0.037599 0.039791,-0.047026 -0.00566,0.00273 -0.00732,0.00508 -0.011369,0.00465 -8.731e-4,-9.37e-5 0.00787,-0.00645 0.014986,-0.011885 0.00554,-0.00651 0.011951,-0.013663 0.015502,-0.018087 0.0023,-0.00288 0.0065,-0.00409 0.0093,-0.00672 0.00836,-0.0093 0.019913,-0.022259 0.030489,-0.031006 -3.969e-4,6.35e-4 -0.00356,0.00666 0.0062,-0.0093 0.00329,-0.00204 0.00662,-0.00397 0.00982,-0.0062 -0.00193,-0.00222 0.00947,-0.013216 0.01447,-0.019637 0.00119,-0.00156 -0.00233,0.00323 -0.00259,0.00517 -5.027e-4,0.0038 0.010083,-0.019735 0.0062,-0.00982 0.012959,-0.032097 0.00715,-0.026554 0.032556,-0.051677 0.00594,-0.00587 -0.015833,0.027469 -0.016021,0.019121 -3.44e-4,-0.015404 0.02245,-0.036497 0.01292,-0.017052 0.00341,-0.00647 0.00692,-0.01265 0.010335,-0.019121 3.969e-4,0.00146 7.38e-5,0.00528 0.00103,0.00414 0.00233,-0.00281 0.00246,-0.00709 0.00414,-0.010335 0.027545,-0.054121 0.00998,-0.029277 0.036173,-0.055294 0.0031,-0.003 0.0078,-0.01283 0.0093,-0.00878 0.00228,0.00616 0.00266,0.01805 0.00362,0.028422 0.00206,-0.00297 0.00393,-0.0067 0.0062,-0.0093 -0.00277,-0.00903 -0.00672,-0.018018 -0.0062,-0.026872 7.938e-4,-0.013875 0.031939,-0.029793 0.043408,-0.034623 0.00972,-0.00891 0.018277,-0.018807 0.032039,-0.02222 0.013997,-0.00347 0.028591,-0.00641 0.042891,-0.00827 0.0033,-4.233e-4 0.012935,-1.132e-4 0.00982,0.00103 -0.00744,0.00275 -0.015933,0.00241 -0.02377,0.00362 0.00666,0.0071 0.013396,0.014176 0.020153,0.021188 0.00742,-0.00156 0.013356,-0.00409 0.023254,-0.00465 0.023006,0.00153 0.048358,0.00257 0.071313,0.010335 0.010353,-0.012594 0.041298,-0.034865 0.063046,-0.047025 -0.015595,-0.013465 -0.024479,-0.038316 -0.016021,-0.076998 -0.080068,0.074444 -0.1520621,0.00127 -0.078548,-0.0863 0.01,-0.011906 0.021923,-0.022236 0.033073,-0.033073 -0.00116,-0.00592 -0.00249,-0.011647 -0.00362,-0.01757 0.011652,-0.036481 0.029856,-0.052217 0.056844,-0.071314 0.00251,-0.00337 0.00369,-0.00709 0.00672,-0.010335 0.00856,-0.00878 0.01673,-0.01815 0.025839,-0.026355 0.0018,-0.00162 0.018185,-0.00979 0.020153,-0.013952 9.789e-4,-0.00206 -0.00413,0.00165 -0.0062,0.00258 0.00222,-0.00265 0.00451,-0.0051 0.00672,-0.00775 0.031401,-0.030686 0.029869,-0.031672 0.058395,-0.042375 v -4.892e-4 c -0.00409,0.00219 -0.00705,0.00505 -0.00723,0.00258 -3.175e-4,-0.00421 0.00574,-0.00573 0.010335,-0.00775 0.00473,-0.00724 0.00933,-0.014532 0.013436,-0.022221 6.085e-4,-0.00116 -0.022273,0.021974 0.00362,-0.00413 0.00849,-0.00843 0.043056,-0.07782 0.048576,-0.06873 0.00855,0.014073 0.012499,0.030397 0.014986,0.047026 l 5.291e-4,-5.16e-4 c -0.00246,-0.01814 -0.00498,-0.036269 -0.00775,-0.05426 -5.027e-4,3.519e-4 -0.00103,6.958e-4 -0.00156,0.00103 -7.408e-4,5.08e-4 0.0014,-0.00346 0.00156,-0.00258 7.81e-5,5.054e-4 -7.75e-5,0.00105 0,0.00155 0.00592,-0.00412 0.011732,-0.00856 0.017571,-0.012919 9.525e-4,-0.0059 0.00246,-0.011963 0.0093,-0.021187 0.00565,-0.00761 0.031341,-0.038766 0.042375,-0.044958 4.498e-4,-7.064e-4 9.26e-4,-0.00141 0.00156,-0.00207 1.72e-4,-6.48e-5 2.067e-4,-7.302e-4 5.292e-4,-0.00103 3.969e-4,-0.00159 7.144e-4,-0.00172 0.00103,-0.0031 -0.00193,-3.58e-5 -0.00504,7.117e-4 -0.00672,5.159e-4 0.00295,-0.00201 0.00547,-0.00326 0.00878,-0.0062 7.672e-4,-0.00305 0.0022,-0.00925 0.0031,-0.00982 -1.397e-4,-3.545e-4 -3.704e-4,-6.879e-4 -5.292e-4,-0.00103 -0.00662,-0.017643 0.010351,-0.040966 0.028422,-0.060461 0.011382,-0.039972 0.033546,-0.059294 0.056844,-0.059428 -1.881e-4,-5.106e-4 -3.175e-4,-0.00104 -5.291e-4,-0.00155 7.937e-4,4.128e-4 0.00172,7.091e-4 0.00259,0.00103 0.0023,9.52e-5 0.00447,-0.00252 0.00672,-0.00207 0.00183,3.624e-4 0.00288,0.00303 0.00465,0.00362 0.00405,-0.00859 0.00752,-0.017726 0.011369,-0.026355 0.00524,-0.010319 0.010263,-0.02017 0.015502,-0.030489 0.013227,-0.026069 0.032609,-0.040811 0.05271,-0.047026 0.015076,-0.00466 0.030733,-0.00456 0.044442,-0.00103 z m -0.2284101,0.243396 c 8.467e-4,-9.26e-4 0.00222,-0.00213 0.00259,-0.00207 0.00209,3.36e-4 0.00498,0.00249 0.00723,0.0031 0.00148,-0.00135 0.00337,-0.00232 0.00414,-0.00413 1.183e-4,-2.911e-4 -1.164e-4,-7.488e-4 0,-0.00103 -0.00415,3.89e-4 -0.00841,0.00107 -0.011885,0.00103 -0.00103,9.101e-4 -0.00103,0.00218 -0.00206,0.0031 z M 6.0073851,3.836975 c 0.00362,-5.556e-4 0.00309,-0.00406 0.00517,-0.00568 -0.00269,0.0014 -0.00515,0.00291 -0.00827,0.00414 0.0013,1.08e-5 0.00167,0.00177 0.0031,0.00156 z m 0.06873,-0.057361 c 0.00313,-0.00259 0.00632,-0.00505 0.00878,-0.00827 0.00249,-0.00325 -0.00429,0.00327 -0.0093,0.00775 z m -5.294e-4,-5.29e-4 c -2.249e-4,-3.704e-4 -2.91e-4,-0.00167 -5.291e-4,-0.00206 -0.00101,0.00135 -0.00146,0.00358 -0.00259,0.00465 0.00122,-0.00101 0.00143,-0.00108 0.0031,-0.00259 z m -5.291e-4,-0.00206 c 0.00525,-0.00706 0.00519,-0.020077 0.00672,-0.031523 -0.00375,0.00416 -0.00841,0.00746 -0.012401,0.011369 0.00188,0.00616 0.00355,0.016169 0.00568,0.020153 z M 5.8600826,2.1275094 c -0.00503,-0.00925 -0.014219,0.00551 -0.023254,0.017053 0.00185,6.826e-4 0.00287,0.0032 0.00465,0.00413 0.012864,0.00527 0.025887,0.010252 0.038757,0.015503 -0.00667,-0.012207 -0.013507,-0.024472 -0.020153,-0.03669 z m -0.094051,0.1493449 c -0.00357,2.492e-4 -0.00711,6.959e-4 -0.010853,0.00103 -6.879e-4,4.737e-4 -0.00143,0.00109 -0.00206,0.00155 0.00214,0.0034 0.0064,0.010193 0.00982,0.015503 0.00618,0.00306 0.00999,0.00525 0.01602,0.00878 0.00349,-0.00181 0.00687,-0.00382 0.010335,-0.00568 -0.00858,-0.00756 -0.00119,-0.0016 -0.023254,-0.021187 z m -0.015502,0.00413 c -0.00156,0.00117 -0.00401,0.00243 -0.00568,0.00362 0.00506,0.00161 0.00851,0.00574 0.013952,0.00827 -0.00273,-0.00396 -0.00563,-0.00786 -0.00827,-0.011886 z m 0.2180746,0.1632975 c -0.00312,0.00325 -0.00619,0.00657 -0.0093,0.00982 -0.00238,0.0027 0.00666,-0.00613 -0.00206,0.00362 -0.00391,0.00435 0.01555,-0.017526 0.011369,-0.013436 z M 5.4301358,2.6447905 c -6.35e-4,0.00168 -8.732e-4,0.00349 -0.00156,0.00517 4.763e-4,-5.556e-4 0.00106,-0.00101 0.00156,-0.00156 7.408e-4,-8.732e-4 3.968e-4,-0.00468 0,-0.00362 z m 0.1240234,0.1974041 c -4.233e-4,5.027e-4 -0.00114,0.00106 -0.00156,0.00156 8.203e-4,3.46e-5 0.00278,0.0046 0.0031,0.0031 3.175e-4,-0.00151 -7.144e-4,-0.00312 -5.292e-4,-0.00465 -3.175e-4,-9.45e-5 -7.144e-4,9.79e-5 -0.00103,0 z m -0.3162599,0.0894 c 0.00222,-0.00276 -0.010202,0.00981 -0.00775,0.00723 0.00228,-0.00238 0.00313,-0.00204 0.00517,-0.00414 0.00122,-9.789e-4 0.00175,-0.00206 0.00259,-0.0031 z m -0.029972,0.075964 c -0.00298,-0.00172 -0.00383,0.00183 -0.00517,0.00413 0.00119,0.00849 0.00271,0.013838 0.0062,0.0062 0.0014,-0.00306 -9.525e-4,-0.00664 -5.291e-4,-0.00982 z m 0.1483114,0.060978 c -3.704e-4,4.762e-4 -3.704e-4,0.00177 -5.291e-4,0.00259 1.055e-4,-0.00103 9.26e-4,-0.00159 0.00103,-0.00259 z M 5.481812,3.1801583 c 0,0 -5.291e-4,5.291e-4 -5.291e-4,5.291e-4 1.8e-6,2.44e-5 -7.4e-6,0.00249 0,0.00259 2.598e-4,-2.599e-4 7.673e-4,-2.567e-4 0.00103,-5.292e-4 -9.69e-5,-0.00111 -4.234e-4,-0.00148 -5.292e-4,-0.00259 z m -0.019121,0.00206 c -3.439e-4,5.027e-4 -6.614e-4,0.00106 -0.00103,0.00156 -0.0018,0.00243 -0.00204,0.00191 -0.00362,0.00362 0.00349,3.44e-4 0.00688,7.144e-4 0.010335,0.00103 -0.00204,-0.00196 -0.00156,-0.00419 -0.0031,-0.0062 -0.00101,8.09e-5 -0.00148,-1.4e-4 -0.00259,0 z m 1.2231812,0.00103 c -0.00842,0.00417 -0.016745,0.00813 -0.024805,0.01292 -2.164e-4,8.467e-4 0.014422,-0.00604 0.021704,-0.0093 0.00103,-0.00111 0.00212,-0.00259 0.0031,-0.00362 z m -0.22686,0.2511531 c -0.00111,3.44e-4 -0.00201,0.00116 -0.0031,0.00156 -0.00267,0.00317 -0.00474,0.00636 -0.00672,0.00982 -0.00251,0.00439 0.014639,-0.012898 0.00982,-0.011369 z m -1.6696655,0.016536 c -0.00167,2.4e-4 -0.00669,7.937e-4 -0.00517,0.00156 0.00153,7.409e-4 0.00312,0.00132 0.00465,0.00206 -3.78e-5,-0.00135 5.027e-4,-0.00233 5.292e-4,-0.00362 z m -0.057878,0.062528 c -3.704e-4,-7.673e-4 -0.0032,1.429e-4 -0.010335,0.0031 0.00119,0.00103 0.00381,0.00206 0.00517,0.0031 0.00348,-0.00303 0.00555,-0.00544 0.00517,-0.0062 z m -0.032039,0.032039 c -0.00159,-0.00148 0.00779,0.00826 0.00672,0.00723 3.704e-4,-2.911e-4 6.614e-4,-7.408e-4 0.00103,-0.00103 -0.00185,-0.00172 -0.00629,-0.00482 -0.00775,-0.0062 z m 0.011369,0.00827 c -9.525e-4,5.292e-4 -0.00161,0.00103 -0.00259,0.00156 -9.525e-4,-8.996e-4 0.00751,0.00797 0.00723,0.00775 3.704e-4,-0.00111 6.615e-4,-0.0036 0.00103,-0.00465 -0.00164,-0.00148 -0.00423,-0.0033 -0.00568,-0.00465 z M 4.5666218,3.7139708 c 5.82e-4,0.00188 5.82e-4,0.00106 0.00103,0.00259 -0.00185,0.00438 -7.673e-4,0.00623 -0.00465,0.010853 -0.00289,0.00345 0.00241,-0.00911 0.00362,-0.013436 z m 0.3622516,0.00362 c -0.00641,0.00697 -0.011636,0.014946 -0.017052,0.022738 9.789e-4,-6.085e-4 0.00201,-0.00111 0.0031,-0.00156 7.673e-4,-8.203e-4 0.00183,-0.00124 0.00259,-0.00206 0.00641,-0.00676 0.016391,-0.024572 0.011369,-0.019121 z m -0.044959,0.047026 c -1.553e-4,1.336e-4 -8.995e-4,3.969e-4 -0.00103,5.292e-4 0.00737,-5.292e-4 0.014256,-0.00175 0.023254,-5.292e-4 0.00728,0.00101 -0.011319,2.233e-4 -0.02222,0 z m 0.3849894,0.00723 -0.00723,0.00465 c 0.00301,-0.00172 0.00576,-0.00198 0.00775,-0.0031 -9.95e-5,-5.027e-4 -4.233e-4,-0.00106 -5.292e-4,-0.00156 z m 0.1260907,0.011885 c -9.525e-4,0.00365 6.35e-4,9.79e-4 -0.00103,0.010853 -1.929e-4,0.00114 0.00127,-0.00161 0.00206,-0.0031 -2.225e-4,-0.00122 9.525e-4,-0.00241 5.292e-4,-0.00362 -3.969e-4,-0.00111 4.498e-4,0.00201 0,0.0031 l -5.292e-4,5.291e-4 c 4.234e-4,0.00222 -3.439e-4,0.00447 -5.291e-4,0.00672 0.00108,-8.467e-4 0.00695,-0.00151 0.00827,-0.00206 -0.00281,-0.00422 -0.00589,-0.00824 -0.00878,-0.012401 z m 0.6552572,0.0031 c 6.06e-5,3.175e-4 4.498e-4,7.144e-4 5.292e-4,0.00103 0.00122,-3.175e-4 0.00241,-7.144e-4 0.00362,-0.00103 -0.00135,-3.439e-4 -0.0028,5.821e-4 -0.00413,0 z m -0.8252727,0.00206 c -0.00151,0.00732 -0.00156,0.013195 0.00156,0.020672 0.00377,-0.0032 0.00746,-0.00627 0.011369,-0.0093 -0.00496,-0.00377 -0.010102,-0.00755 -0.01292,-0.011369 z m 0.01292,0.011369 c -0.00148,0.00111 -0.00332,0.00228 -0.00414,0.00414 -0.00161,0.00376 -0.00185,0.00777 -0.0031,0.011885 0.00138,0.00214 0.00235,0.00428 0.00414,0.0062 4.233e-4,-0.00267 -2.492e-4,-0.0088 5.292e-4,-0.00982 7.673e-4,-0.00119 0.00172,0.00196 0.00259,0.0031 0.0056,0.00552 0.010898,0.01107 0.016537,0.016536 0.00808,0.00257 0.01511,0.00641 0.025839,0.00414 -1.514e-4,-5.027e-4 1.497e-4,-0.00106 0,-0.00156 C 5.2681541,3.8224645 5.25254,3.8109154 5.238438,3.800258 Z m 0.7730794,-0.00723 c -0.00285,9.261e-4 -0.00557,0.00191 -0.00827,0.00259 0.00332,0.01234 0.00643,0.025262 0.00982,0.03514 0.00799,-0.00666 0.00445,-0.021331 -0.00156,-0.037724 z M 4.8399906,3.9062035 c -0.00381,0.00243 -0.00161,-4.762e-4 -0.018087,0.0093 -0.0014,8.466e-4 -0.00222,2.645e-4 -0.00362,0.00103 0.0013,0.00309 0.00271,0.00715 0.00362,0.00982 0.00217,0.0064 0.012888,-8.57e-5 0.02377,-0.00827 -6.614e-4,-0.00161 -0.00487,-0.0097 -0.00568,-0.011885 z m 0.5741252,0.011885 c -0.0033,0.00196 -0.00593,0.00509 -0.00827,0.00827 0.00167,-0.00101 0.00204,-0.00138 0.0031,-0.00206 0.00161,-0.00209 0.00744,-0.00756 0.00517,-0.0062 z m -0.7183025,0.057878 c 5.292e-4,3.41e-5 -0.016145,1.029e-4 -0.016536,5.292e-4 3.05e-5,0.00249 -8.731e-4,0.00474 -0.00103,0.00723 0.00711,-0.00584 0.015494,-0.00788 0.017571,-0.00775 z" />
    </clipPath>
    <clipPath
       clipPathUnits="userSpaceOnUse"
       id="clipPath961">
      <path
         id="path963"
         style="fill:#ff0000;fill-opacity:1;fill-rule:nonzero;stroke:none;stroke-width:0.264583"
         d="M 5.8260008,0.98391926 V 2.1414713 c 0.00175,1.368e-4 0.00344,-0.00189 0.00517,-0.00155 0.00183,3.624e-4 0.00288,0.00303 0.00465,0.00362 0.00405,-0.00859 0.00752,-0.017726 0.011369,-0.026355 0.00524,-0.010319 0.010263,-0.02017 0.015502,-0.030489 0.013227,-0.026069 0.032609,-0.040811 0.05271,-0.047026 0.060303,-0.018643 0.1278194,0.03822 0.057361,0.090434 -0.00672,0.00498 -0.011253,0.018692 -0.01602,0.031523 0.050397,0.00131 0.073999,0.061198 0.010853,0.1167887 -0.00228,0.002 -0.00447,0.00371 -0.00672,0.00568 0.010422,-0.00459 0.021381,-0.00784 0.032039,-0.011886 0.023963,-0.010907 0.035905,-0.020158 0.050126,-0.016536 0.011007,0.0028 0.028862,0.023374 0.049093,0.046509 -3.704e-4,-0.00105 -1.212e-4,-9.631e-4 -5.291e-4,-0.00207 0.00243,0.00278 0.00479,0.0055 0.00723,0.00827 0.00352,0.00418 0.00377,0.00238 0.00775,0.00723 2.91e-4,3.519e-4 -2.337e-4,0.00117 0,0.00155 0.00169,0.00195 0.00349,0.00372 0.00517,0.00568 0.00191,0.00223 0.00254,0.00592 0.00517,0.00723 0.042335,0.021125 -0.026191,-0.023139 0.047542,0.029456 0.00827,0.01141 0.015978,0.027646 0.025839,0.037724 0.023662,0.024189 0.053939,0.042003 0.07183,0.07183 0.00608,0.014742 0.012266,0.029597 0.018087,0.044442 0.00101,0.00255 -0.00648,-0.00912 -0.00517,-0.00672 0.00844,0.015482 0.01378,0.021364 0.024805,0.037207 0.016431,0.032866 0.030502,0.067672 0.040824,0.1033528 0.00368,0.0053 0.00718,0.010604 0.011369,0.015502 6.879e-4,7.938e-4 0.00235,-2.357e-4 0.0031,5.292e-4 0.00558,0.0055 0.0099,0.01161 0.014986,0.017571 0.016809,0.0041 0.016994,0.015864 0.015502,0.027905 0.010443,0.00727 0.018608,0.016362 0.029456,0.037724 0.00101,0.00198 7.144e-4,0.00316 0.00259,0.0062 h 5.292e-4 v 5.292e-4 c 0.00127,0.0018 0.00183,0.00132 0.0031,0.0031 0.00265,0.00259 0.00307,0.00306 0.00465,0.00465 0.016039,0.015015 0.031302,0.030196 0.044442,0.048059 0.020077,0.027294 0.00733,0.021553 0.020672,0.026872 0.0022,0.00383 0.00454,0.00755 0.00672,0.011369 H 7.8522451 V 0.98391926 Z m 0.034107,1.14359944 c -0.00503,-0.00925 -0.014219,0.00551 -0.023254,0.017053 0.00185,6.826e-4 0.00287,0.0032 0.00465,0.00413 0.012864,0.00527 0.025887,0.010252 0.038757,0.015503 -0.00667,-0.012207 -0.013507,-0.024472 -0.020153,-0.03669 z m 0.1085204,0.3167765 c -0.00312,0.00325 -0.00619,0.00657 -0.0093,0.00982 -0.00238,0.0027 0.00667,-0.00613 -0.00206,0.00362 -0.00391,0.00435 0.01555,-0.017526 0.011369,-0.013436 z" />
    </clipPath>
  </defs>
  <g
     inkscape:label="Layer 1"
     inkscape:groupmode="layer"
     id="layer1">
    <path
       style="fill:none;stroke:#000000;stroke-width:5.53583px;stroke-linecap:butt;stroke-linejoin:miter;stroke-opacity:1"
       d="m 13.980128,107.36628 7.912978,-14.133139 9.007292,5.24605 z"
       id="path834" />
    <path
       style="fill:none;stroke:#c87137;stroke-width:0.264583px;stroke-linecap:butt;stroke-linejoin:miter;stroke-opacity:1"
       d="M 3.9038325,5.3131914 4.4160586,3.7892577 4.340889,4.4407271 4.9505975,4.0481749 4.9088367,4.3070924 5.1594019,4.2068664 4.9923585,4.7748141 5.309741,4.6411791 5.3264454,4.7998706 4.2501962,5.6248346 Z"
       id="path836"
       sodipodi:nodetypes="ccccccccccc"
       clip-path="url(#clipPath908)"
       transform="matrix(26.00558,0,0,16.833514,-79.628258,3.7934714)" />
    <path
       style="fill:none;stroke:#ffff00;stroke-width:0.264583px;stroke-linecap:butt;stroke-linejoin:miter;stroke-opacity:1"
       d="M 4.3993542,3.7892577 4.4912281,4.2736836 5.1009366,3.8811314 5.0591758,4.1400489 5.309741,4.0398229 5.1426976,4.6077706 5.4600801,4.4741356 5.3264454,4.8332792 7.247445,2.6617143 6.0113236,1.7262709 Z"
       id="path838"
       clip-path="url(#clipPath951)"
       transform="matrix(26.00558,0,0,16.833514,-79.628258,3.7934714)" />
    <path
       style="fill:none;stroke:#ff5555;stroke-width:4.94099px;stroke-linecap:butt;stroke-linejoin:miter;stroke-opacity:1"
       d="m 90.928817,22.944 7.190031,-4.371529 7.379082,-1.414352 18.46553,9.739248 1.38089,3.848883 -6.41193,6.59803 z"
       id="path842"
       sodipodi:nodetypes="ccccccc" />
    <path
       style="fill:none;stroke:#c8b7b7;stroke-width:0.264583px;stroke-linecap:butt;stroke-linejoin:miter;stroke-opacity:1"
       d="M 6.0113237,1.7262709 7.2474451,2.6617142 7.6672944,2.1047474 6.431173,1.1693041 Z"
       id="path840"
       sodipodi:nodetypes="ccccc"
       clip-path="url(#clipPath961)"
       transform="matrix(26.00558,0,0,16.833514,-79.628258,3.7934714)" />
  </g>
</svg>
